<svg width="487" height="96" viewBox="0 0 487 96" fill="none" xmlns="http://www.w3.org/2000/svg">
<g clip-path="url(#clip0_1_96)">
<path d="M52.8651 21.3849C52.8651 9.5699 62.3694 0 74.1034 0C85.8374 0 95.3416 9.5699 95.3416 21.3849C95.3416 33.1999 85.8374 42.7698 74.1034 42.7698C68.6848 42.7698 52.8651 42.7698 52.8651 42.7698C52.8651 42.7698 52.8651 27.7439 52.8651 21.3849Z" fill="#48BDE5"/>
<path d="M85.9744 56.8801C82.5862 54.5723 78.5005 53.2302 74.1034 53.2302C67.788 53.2302 52.8651 53.2302 52.8651 53.2302C52.8651 53.2302 52.8651 69.1592 52.8651 74.6151C52.8651 78.3026 53.7994 81.7769 55.4312 84.8121C57.7232 89.0515 61.3978 92.4254 65.8323 94.3193C66.4676 94.5953 67.1153 94.8336 67.788 95.0342C69.781 95.6614 71.8986 96 74.1034 96C80.4188 96 95.3416 96 95.3416 96C95.3416 96 95.3416 80.0711 95.3416 74.6151C95.3416 73.1351 95.1922 71.6927 94.9057 70.3005C94.1956 66.8263 92.651 63.653 90.4836 61.0066C90.0476 60.4798 89.5992 59.9781 89.1134 59.4889C88.1543 58.5231 87.0955 57.6452 85.9744 56.8801Z" fill="#7FDA66"/>
<path d="M22.2099 44.739H22.2223C34.4885 44.739 44.4322 34.7266 44.4322 22.3757V22.3632C44.4322 10.0123 34.4885 -3.8147e-06 22.2223 -3.8147e-06H22.2099C9.9437 -3.8147e-06 1.90735e-05 10.0123 1.90735e-05 22.3632V22.3757C1.90735e-05 34.7266 9.9437 44.739 22.2099 44.739Z" fill="#F23652"/>
<path d="M29.5093 96H42.4765V53.2302H0V66.2869H29.5093V96Z" fill="#142816"/>
<path d="M143.76 88.3992C140.559 88.3992 137.669 88.0229 135.103 87.2578C132.524 86.4928 130.506 84.9249 129.036 82.5419C127.566 80.1714 126.819 76.5591 126.819 71.7177V27.1669C126.819 22.2503 127.579 18.613 129.099 16.2801C130.618 13.9472 132.699 12.417 135.352 11.7021C138.005 10.9871 141.019 10.6234 144.395 10.6234C147.771 10.6234 150.735 10.9997 153.314 11.7648C155.88 12.5299 157.91 14.0726 159.38 16.418C160.85 18.7509 161.597 22.3381 161.597 27.1795V35.9592H158.558V27.5557C158.558 23.2286 157.948 20.0303 156.727 17.9482C155.506 15.8662 153.825 14.5116 151.67 13.8719C149.515 13.2322 147.011 12.9187 144.146 12.9187C141.281 12.9187 138.877 13.2322 136.685 13.8719C134.492 14.5116 132.786 15.8662 131.565 17.9482C130.344 20.0303 129.734 23.2286 129.734 27.5557V71.4794C129.734 75.8066 130.344 79.0175 131.565 81.087C132.786 83.169 134.492 84.5236 136.685 85.1633C138.877 85.8029 141.368 86.1165 144.146 86.1165C148.356 86.1165 151.819 84.8372 154.51 82.291C157.2 79.7449 158.558 76.1327 158.558 71.4669V55.1742H146.289V52.879H161.585V86.869H159.43L159.306 78.7164C158.882 79.4815 158.421 80.2717 157.91 81.0744C157.4 81.8771 156.939 82.5795 156.515 83.169C155.083 84.95 153.326 86.267 151.271 87.1199C149.203 87.9728 146.7 88.3992 143.747 88.3992H143.76Z" fill="#142816"/>
<path d="M176.632 86.8691V5.89496H179.547V86.8691H176.632Z" fill="#142816"/>
<path d="M207.736 87.7596C204.024 87.7596 201.035 87.2078 198.755 86.104C196.476 85.0003 194.831 83.1942 193.822 80.6982C192.813 78.1897 192.303 74.9538 192.303 70.9527V39.5088C192.303 33.7392 193.424 29.5124 195.653 26.8409C197.883 24.1693 201.907 22.8273 207.724 22.8273C213.541 22.8273 217.527 24.1192 219.669 26.7155C221.824 29.3118 222.896 33.5762 222.896 39.5088V70.9527C222.896 74.8534 222.435 78.0643 221.501 80.5603C220.566 83.0687 219.009 84.8874 216.817 86.0413C214.625 87.1827 211.585 87.7596 207.711 87.7596H207.736ZM207.736 85.3515C212.208 85.3515 215.347 84.2728 217.153 82.103C218.959 79.9331 219.869 76.0073 219.869 70.3256V40.1484C219.869 34.8806 219.009 31.0928 217.278 28.7473C215.546 26.4144 212.37 25.248 207.736 25.248C203.102 25.248 200.088 26.3517 198.195 28.5592C196.301 30.7667 195.354 34.6298 195.354 40.1484V70.3256C195.354 75.9321 196.301 79.8328 198.195 82.0403C200.088 84.2477 203.277 85.3515 207.736 85.3515Z" fill="#142816"/>
<path d="M250.101 87.7596C245.965 87.7596 243 87.0949 241.182 85.7905C239.363 84.4735 238.043 82.843 237.196 80.8863L236.947 86.8691H234.667V6.66006H237.582V29.1989C238.678 26.7405 240.297 25.0599 242.452 24.1693C244.607 23.2788 247.198 22.8273 250.225 22.8273C253.937 22.8273 256.889 23.3792 259.082 24.4829C261.274 25.5866 262.856 27.33 263.828 29.7006C264.799 32.0836 265.285 35.2569 265.285 39.2454V70.9527C265.285 73.9253 265.036 76.4714 264.525 78.5911C264.014 80.7108 263.18 82.4542 261.996 83.8087C260.813 85.1633 259.256 86.1667 257.313 86.8064C255.37 87.4461 252.966 87.7596 250.101 87.7596ZM249.976 85.3515C253.09 85.3515 255.544 84.9501 257.313 84.1474C259.082 83.3447 260.352 81.9023 261.112 79.8202C261.872 77.7382 262.246 74.7907 262.246 70.9778V39.0196C262.246 33.5887 261.361 29.9389 259.592 28.07C257.824 26.2012 254.622 25.2731 249.988 25.2731C245.355 25.2731 242.041 26.4019 240.31 28.647C238.578 30.8921 237.719 34.1406 237.719 38.3925V69.9619C237.719 75.4805 238.69 79.4314 240.621 81.8019C242.564 84.185 245.679 85.364 249.976 85.364V85.3515Z" fill="#142816"/>
<path d="M288.529 87.7596C286.76 87.7596 284.866 87.5088 282.836 86.9945C280.818 86.4803 279.062 85.1884 277.592 83.1064C276.122 81.0243 275.375 77.7006 275.375 73.11V68.6575C275.375 64.1547 276.72 60.5676 279.423 57.896C282.126 55.2245 285.539 52.7787 289.662 50.5712C292.702 48.9658 295.243 47.5109 297.31 46.2441C299.378 44.9647 300.96 43.5725 302.056 42.0423C303.153 40.5122 303.701 38.6057 303.701 36.3104V34.1406C303.701 31.5067 303.128 29.5375 301.994 28.2206C300.861 26.9036 299.378 26.0131 297.572 25.549C295.753 25.0849 293.885 24.8466 291.942 24.8466C286.972 24.8466 283.696 26.0758 282.139 28.5341C280.581 30.9924 279.797 34.4792 279.797 38.9694V44.3125H277.019V38.7061C277.019 35.5704 277.418 32.786 278.215 30.3653C279.012 27.9446 280.494 26.0382 282.637 24.6334C284.792 23.2287 287.881 22.5388 291.929 22.5388C296.401 22.5388 299.665 23.1283 301.733 24.3198C303.8 25.5114 305.121 27.1043 305.719 29.0985C306.304 31.0928 306.603 33.2375 306.603 35.5328V86.844H303.701L303.576 78.3151C302.306 81.5386 300.288 83.9216 297.51 85.4393C294.732 86.9694 291.73 87.7345 288.529 87.7345V87.7596ZM289.039 85.3515C294.01 85.3515 297.684 83.6582 300.038 80.2592C302.393 76.8602 303.576 72.4076 303.576 66.889V43.8485C302.393 45.6295 300.562 47.2475 298.07 48.6899C295.579 50.1322 293.038 51.537 290.422 52.8916C286.623 55.0113 283.683 57.2187 281.566 59.514C279.46 61.8093 278.402 64.9951 278.402 69.0588V72.8843C278.402 76.9606 278.975 79.8704 280.108 81.6013C281.242 83.3447 282.662 84.3982 284.343 84.7871C286.025 85.1633 287.582 85.364 289.027 85.364L289.039 85.3515Z" fill="#142816"/>
<path d="M321.538 86.8691V5.89496H324.453V86.8691H321.538Z" fill="#142816"/>
<path d="M338.068 86.8691L353.751 11.6268H366.905L382.463 86.8691H371.713L368.175 70.313H351.733L348.444 86.8691H338.08H338.068ZM352.106 65.2333H367.914L360.079 22.3255L352.106 65.2333Z" fill="#142816"/>
<path d="M385.353 86.869L399.005 53.7695L387.495 23.8432H396.725L405.32 46.1186L414.675 23.8432H423.656L411.262 53.7695L424.416 86.869H415.186L405.196 62.1729L394.832 86.869H385.353Z" fill="#142816"/>
<path d="M436.436 16.2174C435.091 16.2174 433.908 15.7282 432.899 14.7499C431.89 13.7716 431.379 12.6052 431.379 11.2506C431.379 9.80818 431.89 8.61665 432.899 7.68851C433.908 6.76037 435.091 6.28375 436.436 6.28375C437.869 6.28375 439.115 6.74782 440.161 7.68851C441.22 8.62919 441.743 9.80818 441.743 11.2506C441.743 12.6052 441.22 13.7716 440.161 14.7499C439.102 15.7282 437.869 16.2174 436.436 16.2174ZM431.765 86.8691V23.8557H441.245V86.8816H431.765V86.8691Z" fill="#142816"/>
<path d="M468.549 87.7596C463.828 87.7596 460.166 87.1701 457.55 85.9786C454.934 84.787 453.103 82.9056 452.044 80.3094C450.986 77.7256 450.462 74.3517 450.462 70.1876V64.8445H460.203V72.3574C460.203 76.0073 460.789 78.5534 461.972 79.9958C463.156 81.4382 465.348 82.1656 468.549 82.1656C471.327 82.1656 473.357 81.4507 474.616 79.9958C475.886 78.5534 476.509 76.2581 476.509 73.1225V69.1717C476.509 67.215 476.197 65.5594 475.562 64.2048C474.927 62.8503 473.793 61.6211 472.149 60.5174C470.505 59.4136 468.288 58.3099 465.51 57.2061C462.894 56.1024 460.552 54.936 458.497 53.7068C456.429 52.4776 454.785 50.8847 453.564 48.9281C452.343 46.9715 451.733 44.4756 451.733 41.4152V37.5897C451.733 32.9239 453.041 29.2992 455.657 26.7029C458.273 24.1191 462.869 22.8147 469.434 22.8147C473.731 22.8147 477.119 23.3917 479.611 24.533C482.102 25.6744 483.908 27.5056 485.054 30.0141C486.188 32.5226 486.761 35.7711 486.761 39.7596V44.9773H477.406V38.4803C477.406 34.6548 476.77 32.0334 475.512 30.5911C474.242 29.1487 472.224 28.4212 469.446 28.4212C466.332 28.4212 464.214 29.1863 463.118 30.7165C462.022 32.2467 461.474 34.1531 461.474 36.4484V40.2738C461.474 42.5691 461.997 44.4379 463.056 45.8803C464.115 47.3227 465.609 48.5142 467.54 49.4424C469.483 50.383 471.713 51.3488 474.242 52.3648C476.596 53.3054 478.726 54.359 480.632 55.5505C482.525 56.7421 484.02 58.2848 485.116 60.2038C486.212 62.1103 486.761 64.7191 486.761 68.0303V71.2161C486.761 74.7781 486.212 77.8009 485.116 80.2592C484.02 82.7175 482.139 84.5863 479.486 85.8657C476.833 87.145 473.183 87.7721 468.549 87.7721V87.7596Z" fill="#142816"/>
</g>
<defs>
<clipPath id="clip0_1_96">
<rect width="486.761" height="96" fill="white"/>
</clipPath>
</defs>
</svg>
