<svg width="1011" height="158" viewBox="0 0 1011 158" fill="none" xmlns="http://www.w3.org/2000/svg">
<path d="M28.63 135.52C23.17 135.52 18.27 134.89 13.93 133.63C9.73 132.37 6.37 129.78 3.85 125.86C1.33 121.94 0.0700004 115.92 0.0700004 107.8V34.51C0.0700004 26.39 1.33 20.44 3.85 16.66C6.37 12.74 9.8 10.22 14.14 9.09999C18.62 7.83999 23.59 7.20999 29.05 7.20999C34.65 7.20999 39.55 7.83999 43.75 9.09999C48.09 10.36 51.52 12.95 54.04 16.87C56.56 20.65 57.82 26.53 57.82 34.51V53.41H52.78V34.93C52.78 27.79 51.73 22.54 49.63 19.18C47.67 15.68 44.87 13.44 41.23 12.46C37.59 11.34 33.46 10.78 28.84 10.78C24.22 10.78 20.09 11.34 16.45 12.46C12.81 13.44 9.94 15.68 7.84 19.18C5.88 22.54 4.9 27.79 4.9 34.93V107.59C4.9 114.73 5.88 120.05 7.84 123.55C9.94 126.91 12.81 129.15 16.45 130.27C20.09 131.25 24.22 131.74 28.84 131.74C33.6 131.74 37.73 131.25 41.23 130.27C44.87 129.15 47.67 126.91 49.63 123.55C51.73 120.05 52.78 114.73 52.78 107.59V92.89H57.82V107.8C57.82 116.06 56.56 122.15 54.04 126.07C51.52 129.99 48.09 132.51 43.75 133.63C39.41 134.89 34.37 135.52 28.63 135.52ZM73.2271 133V0.699988H78.2671V35.98C80.0871 33.32 82.6771 31.22 86.0371 29.68C89.3971 28.14 93.8071 27.37 99.2671 27.37C107.107 27.37 112.777 28.77 116.277 31.57C119.777 34.23 121.947 37.66 122.787 41.86C123.767 46.06 124.257 50.4 124.257 54.88V133H119.217V56.77C119.217 54.25 119.147 51.52 119.007 48.58C118.867 45.64 118.167 42.91 116.907 40.39C115.787 37.73 113.827 35.56 111.027 33.88C108.227 32.2 104.167 31.36 98.8471 31.36C93.9471 31.36 89.9571 32.2 86.8771 33.88C83.7971 35.42 81.5571 37.24 80.1571 39.34C78.8971 41.44 78.2671 43.26 78.2671 44.8V133H73.2271ZM157.716 134.47C154.776 134.47 151.626 134.05 148.266 133.21C144.906 132.37 141.966 130.27 139.446 126.91C137.066 123.41 135.876 117.88 135.876 110.32V102.97C135.876 95.55 138.116 89.67 142.596 85.33C147.076 80.85 152.746 76.79 159.606 73.15C164.646 70.49 168.846 68.11 172.206 66.01C175.706 63.91 178.366 61.6 180.186 59.08C182.006 56.56 182.916 53.41 182.916 49.63V46.06C182.916 41.72 181.936 38.5 179.976 36.4C178.156 34.16 175.706 32.69 172.626 31.99C169.686 31.15 166.606 30.73 163.386 30.73C155.126 30.73 149.666 32.76 147.006 36.82C144.486 40.88 143.226 46.62 143.226 54.04V62.86H138.606V53.62C138.606 48.44 139.236 43.89 140.496 39.97C141.896 35.91 144.346 32.76 147.846 30.52C151.486 28.14 156.666 26.95 163.386 26.95C170.806 26.95 176.196 27.93 179.556 29.89C183.056 31.85 185.296 34.51 186.276 37.87C187.256 41.09 187.746 44.59 187.746 48.37V133H182.916L182.706 118.93C180.606 124.25 177.246 128.17 172.626 130.69C168.006 133.21 163.036 134.47 157.716 134.47ZM158.556 130.48C166.816 130.48 172.906 127.68 176.826 122.08C180.746 116.48 182.706 109.13 182.706 100.03V62.02C180.746 64.96 177.666 67.62 173.466 70C169.406 72.38 165.206 74.69 160.866 76.93C154.566 80.43 149.666 84.07 146.166 87.85C142.666 91.63 140.916 96.88 140.916 103.6V109.9C140.916 116.62 141.826 121.45 143.646 124.39C145.606 127.19 147.986 128.94 150.786 129.64C153.586 130.2 156.176 130.48 158.556 130.48ZM201.934 133V29.05H205.714L206.974 39.34C208.094 35.28 210.754 32.27 214.954 30.31C219.294 28.21 223.634 27.16 227.974 27.16C235.814 27.16 241.484 28.56 244.984 31.36C248.484 34.16 250.654 37.66 251.494 41.86C252.474 46.06 252.964 50.4 252.964 54.88V133H247.924V56.77C247.924 53.69 247.854 50.68 247.714 47.74C247.574 44.66 246.874 41.93 245.614 39.55C244.494 37.03 242.534 35.07 239.734 33.67C236.934 32.13 232.874 31.36 227.554 31.36C222.654 31.36 218.734 32.27 215.794 34.09C212.994 35.91 210.964 38.08 209.704 40.6C208.444 42.98 207.534 45.22 206.974 47.32V133H201.934ZM286.003 157.36C284.743 157.36 283.273 157.29 281.593 157.15C280.053 157.01 278.513 156.87 276.973 156.73C275.573 156.59 274.313 156.45 273.193 156.31C272.073 156.17 271.303 156.03 270.883 155.89V152.11C272.423 152.25 274.593 152.53 277.393 152.95C280.193 153.37 282.853 153.58 285.373 153.58C287.053 153.58 289.223 153.44 291.883 153.16C294.543 153.02 297.203 152.18 299.863 150.64C302.663 149.24 304.973 146.79 306.793 143.29C308.753 139.79 309.733 134.75 309.733 128.17V114.31C308.753 117.67 307.213 120.47 305.113 122.71C303.013 124.81 300.493 126.35 297.553 127.33C294.613 128.31 291.393 128.8 287.893 128.8C285.653 128.8 283.133 128.66 280.333 128.38C277.673 127.96 275.083 127.05 272.563 125.65C270.183 124.11 268.153 121.66 266.473 118.3C264.933 114.94 264.163 110.25 264.163 104.23V52.78C264.163 43.26 265.913 36.61 269.413 32.83C273.053 28.91 279.143 26.95 287.683 26.95C290.903 26.95 294.053 27.44 297.133 28.42C300.353 29.26 303.153 30.66 305.533 32.62C308.053 34.44 309.873 36.89 310.993 39.97L309.523 39.55L310.573 29.05H314.563V129.01C314.563 134.75 313.723 139.44 312.043 143.08C310.363 146.86 308.123 149.73 305.323 151.69C302.663 153.79 299.583 155.26 296.083 156.1C292.723 156.94 289.363 157.36 286.003 157.36ZM288.313 124.81C294.473 124.81 299.023 123.27 301.963 120.19C305.043 117.11 307.073 113.26 308.053 108.64C309.033 104.02 309.523 99.47 309.523 94.99V44.59C308.963 42.77 307.913 40.81 306.373 38.71C304.833 36.61 302.593 34.79 299.653 33.25C296.853 31.71 293.003 30.94 288.103 30.94C281.243 30.94 276.343 32.55 273.403 35.77C270.603 38.85 269.203 44.59 269.203 52.99V104.86C269.203 109.62 269.903 113.4 271.303 116.2C272.703 118.86 274.453 120.82 276.553 122.08C278.653 123.2 280.753 123.97 282.853 124.39C285.093 124.67 286.913 124.81 288.313 124.81ZM328.795 133V29.05H333.625V133H328.795ZM331.315 15.19C330.055 15.19 328.935 14.77 327.955 13.93C327.115 12.95 326.695 11.83 326.695 10.57C326.695 9.31 327.115 8.26 327.955 7.41999C328.935 6.57999 330.055 6.15999 331.315 6.15999C332.575 6.15999 333.625 6.57999 334.465 7.41999C335.445 8.26 335.935 9.31 335.935 10.57C335.935 11.83 335.445 12.95 334.465 13.93C333.625 14.77 332.575 15.19 331.315 15.19ZM350.083 133V29.05H353.863L355.123 39.34C356.243 35.28 358.903 32.27 363.103 30.31C367.443 28.21 371.783 27.16 376.123 27.16C383.963 27.16 389.633 28.56 393.133 31.36C396.633 34.16 398.803 37.66 399.643 41.86C400.623 46.06 401.113 50.4 401.113 54.88V133H396.073V56.77C396.073 53.69 396.003 50.68 395.863 47.74C395.723 44.66 395.023 41.93 393.763 39.55C392.643 37.03 390.683 35.07 387.883 33.67C385.083 32.13 381.023 31.36 375.703 31.36C370.803 31.36 366.883 32.27 363.943 34.09C361.143 35.91 359.113 38.08 357.853 40.6C356.593 42.98 355.683 45.22 355.123 47.32V133H350.083ZM434.151 157.36C432.891 157.36 431.421 157.29 429.741 157.15C428.201 157.01 426.661 156.87 425.121 156.73C423.721 156.59 422.461 156.45 421.341 156.31C420.221 156.17 419.451 156.03 419.031 155.89V152.11C420.571 152.25 422.741 152.53 425.541 152.95C428.341 153.37 431.001 153.58 433.521 153.58C435.201 153.58 437.371 153.44 440.031 153.16C442.691 153.02 445.351 152.18 448.011 150.64C450.811 149.24 453.121 146.79 454.941 143.29C456.901 139.79 457.881 134.75 457.881 128.17V114.31C456.901 117.67 455.361 120.47 453.261 122.71C451.161 124.81 448.641 126.35 445.701 127.33C442.761 128.31 439.541 128.8 436.041 128.8C433.801 128.8 431.281 128.66 428.481 128.38C425.821 127.96 423.231 127.05 420.711 125.65C418.331 124.11 416.301 121.66 414.621 118.3C413.081 114.94 412.311 110.25 412.311 104.23V52.78C412.311 43.26 414.061 36.61 417.561 32.83C421.201 28.91 427.291 26.95 435.831 26.95C439.051 26.95 442.201 27.44 445.281 28.42C448.501 29.26 451.301 30.66 453.681 32.62C456.201 34.44 458.021 36.89 459.141 39.97L457.671 39.55L458.721 29.05H462.711V129.01C462.711 134.75 461.871 139.44 460.191 143.08C458.511 146.86 456.271 149.73 453.471 151.69C450.811 153.79 447.731 155.26 444.231 156.1C440.871 156.94 437.511 157.36 434.151 157.36ZM436.461 124.81C442.621 124.81 447.171 123.27 450.111 120.19C453.191 117.11 455.221 113.26 456.201 108.64C457.181 104.02 457.671 99.47 457.671 94.99V44.59C457.111 42.77 456.061 40.81 454.521 38.71C452.981 36.61 450.741 34.79 447.801 33.25C445.001 31.71 441.151 30.94 436.251 30.94C429.391 30.94 424.491 32.55 421.551 35.77C418.751 38.85 417.351 44.59 417.351 52.99V104.86C417.351 109.62 418.051 113.4 419.451 116.2C420.851 118.86 422.601 120.82 424.701 122.08C426.801 123.2 428.901 123.97 431.001 124.39C433.241 124.67 435.061 124.81 436.461 124.81ZM515.308 133V12.88H493.258V8.89H543.028V12.88H520.348V133H515.308ZM548.434 133V0.699988H553.474V35.98C555.294 33.32 557.884 31.22 561.244 29.68C564.604 28.14 569.014 27.37 574.474 27.37C582.314 27.37 587.984 28.77 591.484 31.57C594.984 34.23 597.154 37.66 597.994 41.86C598.974 46.06 599.464 50.4 599.464 54.88V133H594.424V56.77C594.424 54.25 594.354 51.52 594.214 48.58C594.074 45.64 593.374 42.91 592.114 40.39C590.994 37.73 589.034 35.56 586.234 33.88C583.434 32.2 579.374 31.36 574.054 31.36C569.154 31.36 565.164 32.2 562.084 33.88C559.004 35.42 556.764 37.24 555.364 39.34C554.104 41.44 553.474 43.26 553.474 44.8V133H548.434ZM637.333 134.89C630.473 134.89 625.083 134.12 621.163 132.58C617.383 130.9 614.653 128.1 612.973 124.18C611.433 120.26 610.663 114.73 610.663 107.59V52.15C610.663 42.63 612.483 36.12 616.123 32.62C619.903 29.12 626.553 27.37 636.073 27.37C645.453 27.37 651.963 29.12 655.603 32.62C659.243 36.12 661.063 42.63 661.063 52.15V77.98H615.703V108.01C615.703 116.41 617.033 122.29 619.693 125.65C622.493 129.01 628.233 130.69 636.913 130.69C644.613 130.69 649.723 129.08 652.243 125.86C654.763 122.64 656.023 116.69 656.023 108.01V96.67H661.063V107.38C661.063 114.24 660.293 119.7 658.753 123.76C657.213 127.82 654.693 130.69 651.193 132.37C647.833 134.05 643.213 134.89 637.333 134.89ZM615.703 73.99H656.023V52.36C656.023 44.94 654.763 39.55 652.243 36.19C649.723 32.83 644.333 31.15 636.073 31.15C627.953 31.15 622.493 32.83 619.693 36.19C617.033 39.55 615.703 44.94 615.703 52.36V73.99ZM707.521 133V8.89H758.551V12.88H712.771V65.59H748.051V69.58H712.771V133H707.521ZM781.98 134.68C774.14 134.68 768.47 133.35 764.97 130.69C761.47 127.89 759.23 124.39 758.25 120.19C757.41 115.85 756.99 111.51 756.99 107.17V29.05H762.03V105.28C762.03 109.2 762.24 113.12 762.66 117.04C763.08 120.82 764.69 123.97 767.49 126.49C770.43 129.01 775.4 130.27 782.4 130.27C787.44 130.27 791.36 129.43 794.16 127.75C796.96 125.93 798.99 123.83 800.25 121.45C801.65 118.93 802.56 116.69 802.98 114.73V29.05H808.02V133H803.61L803.19 122.71C802.07 125.65 799.83 128.38 796.47 130.9C793.11 133.42 788.28 134.68 781.98 134.68ZM840.849 133C837.909 133 835.389 132.58 833.289 131.74C831.329 130.9 829.719 129.71 828.459 128.17C827.199 126.49 826.289 124.53 825.729 122.29C825.169 119.91 824.889 117.18 824.889 114.1V33.04H816.069V29.89L824.889 29.05L826.359 9.30999H829.719V29.05H854.289V33.04H829.719V113.26C829.719 117.88 830.559 121.66 832.239 124.6C833.919 127.4 837.349 128.8 842.529 128.8C844.629 128.8 846.729 128.73 848.829 128.59C851.069 128.45 852.889 128.31 854.289 128.17V132.16C852.749 132.3 850.789 132.51 848.409 132.79C846.029 132.93 843.509 133 840.849 133ZM882.182 134.68C874.342 134.68 868.672 133.35 865.172 130.69C861.672 127.89 859.432 124.39 858.452 120.19C857.612 115.85 857.192 111.51 857.192 107.17V29.05H862.232V105.28C862.232 109.2 862.442 113.12 862.862 117.04C863.282 120.82 864.892 123.97 867.692 126.49C870.632 129.01 875.602 130.27 882.602 130.27C887.642 130.27 891.562 129.43 894.362 127.75C897.162 125.93 899.192 123.83 900.452 121.45C901.852 118.93 902.762 116.69 903.182 114.73V29.05H908.222V133H903.812L903.392 122.71C902.272 125.65 900.032 128.38 896.672 130.9C893.312 133.42 888.482 134.68 882.182 134.68ZM924.67 133V29.05H928.66L929.71 39.34C931.53 34.86 934.54 31.85 938.74 30.31C942.94 28.63 947.07 27.72 951.13 27.58C954.63 27.58 957.64 27.79 960.16 28.21V32.62C959.32 32.34 958.41 32.2 957.43 32.2C956.45 32.06 955.4 31.99 954.28 31.99C953.3 31.85 952.25 31.85 951.13 31.99C945.25 31.99 940.21 33.39 936.01 36.19C931.81 38.99 929.71 42.98 929.71 48.16V133H924.67ZM986.704 134.89C979.844 134.89 974.454 134.12 970.534 132.58C966.754 130.9 964.024 128.1 962.344 124.18C960.804 120.26 960.034 114.73 960.034 107.59V52.15C960.034 42.63 961.854 36.12 965.494 32.62C969.274 29.12 975.924 27.37 985.444 27.37C994.824 27.37 1001.33 29.12 1004.97 32.62C1008.61 36.12 1010.43 42.63 1010.43 52.15V77.98H965.074V108.01C965.074 116.41 966.404 122.29 969.064 125.65C971.864 129.01 977.604 130.69 986.284 130.69C993.984 130.69 999.094 129.08 1001.61 125.86C1004.13 122.64 1005.39 116.69 1005.39 108.01V96.67H1010.43V107.38C1010.43 114.24 1009.66 119.7 1008.12 123.76C1006.58 127.82 1004.06 130.69 1000.56 132.37C997.204 134.05 992.584 134.89 986.704 134.89ZM965.074 73.99H1005.39V52.36C1005.39 44.94 1004.13 39.55 1001.61 36.19C999.094 32.83 993.704 31.15 985.444 31.15C977.324 31.15 971.864 32.83 969.064 36.19C966.404 39.55 965.074 44.94 965.074 52.36V73.99Z" fill="white"/>
</svg>
