<svg width="1263" height="157" viewBox="0 0 1263 157" fill="none" xmlns="http://www.w3.org/2000/svg">
<path d="M22.57 132.479V12.3589H0.52V8.36888H50.29V12.3589H27.61V132.479H22.57ZM55.6959 132.479V0.17887H60.7359V35.4589C62.5559 32.7989 65.1459 30.6989 68.5059 29.1589C71.8659 27.6189 76.2759 26.8489 81.7359 26.8489C89.5759 26.8489 95.2459 28.2489 98.7459 31.0489C102.246 33.7089 104.416 37.1389 105.256 41.3389C106.236 45.5389 106.726 49.8789 106.726 54.3589V132.479H101.686V56.2489C101.686 53.7289 101.616 50.9989 101.476 48.0589C101.336 45.1189 100.636 42.3889 99.3759 39.8689C98.2559 37.2089 96.2959 35.0389 93.4959 33.3589C90.6959 31.6789 86.6359 30.8389 81.3159 30.8389C76.4159 30.8389 72.4259 31.6789 69.3459 33.3589C66.2659 34.8989 64.0259 36.7189 62.6259 38.8189C61.3659 40.9189 60.7359 42.7389 60.7359 44.2789V132.479H55.6959ZM121.075 132.479V28.5289H125.065L126.115 38.8189C127.935 34.3389 130.945 31.3289 135.145 29.7889C139.345 28.1089 143.475 27.1989 147.535 27.0589C151.035 27.0589 154.045 27.2689 156.565 27.6889V32.0989C155.725 31.8189 154.815 31.6789 153.835 31.6789C152.855 31.5389 151.805 31.4689 150.685 31.4689C149.705 31.3289 148.655 31.3289 147.535 31.4689C141.655 31.4689 136.615 32.8689 132.415 35.6689C128.215 38.4689 126.115 42.4589 126.115 47.6389V132.479H121.075ZM182.058 133.949C175.898 133.949 170.928 133.039 167.148 131.219C163.368 129.399 160.638 126.459 158.958 122.399C157.278 118.199 156.438 112.809 156.438 106.229V54.3589C156.438 44.8389 158.258 37.9089 161.898 33.5689C165.678 29.0889 172.398 26.8489 182.058 26.8489C191.718 26.8489 198.298 29.0189 201.798 33.3589C205.438 37.5589 207.258 44.5589 207.258 54.3589V106.229C207.258 112.669 206.488 117.989 204.948 122.189C203.408 126.249 200.818 129.259 197.178 131.219C193.538 133.039 188.498 133.949 182.058 133.949ZM182.058 129.959C189.478 129.959 194.658 128.209 197.598 124.709C200.678 121.069 202.218 114.559 202.218 105.179V55.4089C202.218 46.7289 200.748 40.4989 197.808 36.7189C195.008 32.7989 189.758 30.8389 182.058 30.8389C174.638 30.8389 169.318 32.6589 166.098 36.2989C163.018 39.9389 161.478 46.3089 161.478 55.4089V105.179C161.478 114.419 163.018 120.859 166.098 124.499C169.318 128.139 174.638 129.959 182.058 129.959ZM243.346 134.159C235.506 134.159 229.836 132.829 226.336 130.169C222.836 127.369 220.596 123.869 219.616 119.669C218.776 115.329 218.356 110.989 218.356 106.649V28.5289H223.396V104.759C223.396 108.679 223.606 112.599 224.026 116.519C224.446 120.299 226.056 123.449 228.856 125.969C231.796 128.489 236.766 129.749 243.766 129.749C248.806 129.749 252.726 128.909 255.526 127.229C258.326 125.409 260.356 123.309 261.616 120.929C263.016 118.409 263.926 116.169 264.346 114.209V28.5289H269.386V132.479H264.976L264.556 122.189C263.436 125.129 261.196 127.859 257.836 130.379C254.476 132.899 249.646 134.159 243.346 134.159ZM304.525 156.839C303.265 156.839 301.795 156.769 300.115 156.629C298.575 156.489 297.035 156.349 295.495 156.209C294.095 156.069 292.835 155.929 291.715 155.789C290.595 155.649 289.825 155.509 289.405 155.369V151.589C290.945 151.729 293.115 152.009 295.915 152.429C298.715 152.849 301.375 153.059 303.895 153.059C305.575 153.059 307.745 152.919 310.405 152.639C313.065 152.499 315.725 151.659 318.385 150.119C321.185 148.719 323.495 146.269 325.315 142.769C327.275 139.269 328.255 134.229 328.255 127.649V113.789C327.275 117.149 325.735 119.949 323.635 122.189C321.535 124.289 319.015 125.829 316.075 126.809C313.135 127.789 309.915 128.279 306.415 128.279C304.175 128.279 301.655 128.139 298.855 127.859C296.195 127.439 293.605 126.529 291.085 125.129C288.705 123.589 286.675 121.139 284.995 117.779C283.455 114.419 282.685 109.729 282.685 103.709V52.2589C282.685 42.7389 284.435 36.0889 287.935 32.3089C291.575 28.3889 297.665 26.4289 306.205 26.4289C309.425 26.4289 312.575 26.9189 315.655 27.8989C318.875 28.7389 321.675 30.1389 324.055 32.0989C326.575 33.9189 328.395 36.3689 329.515 39.4489L328.045 39.0289L329.095 28.5289H333.085V128.489C333.085 134.229 332.245 138.919 330.565 142.559C328.885 146.339 326.645 149.209 323.845 151.169C321.185 153.269 318.105 154.739 314.605 155.579C311.245 156.419 307.885 156.839 304.525 156.839ZM306.835 124.289C312.995 124.289 317.545 122.749 320.485 119.669C323.565 116.589 325.595 112.739 326.575 108.119C327.555 103.499 328.045 98.9489 328.045 94.4689V44.0689C327.485 42.2489 326.435 40.2889 324.895 38.1889C323.355 36.0889 321.115 34.2689 318.175 32.7289C315.375 31.1889 311.525 30.4189 306.625 30.4189C299.765 30.4189 294.865 32.0289 291.925 35.2489C289.125 38.3289 287.725 44.0689 287.725 52.4689V104.339C287.725 109.099 288.425 112.879 289.825 115.679C291.225 118.339 292.975 120.299 295.075 121.559C297.175 122.679 299.275 123.449 301.375 123.869C303.615 124.149 305.435 124.289 306.835 124.289ZM347.317 132.479V0.17887H352.357V35.4589C354.177 32.7989 356.767 30.6989 360.127 29.1589C363.487 27.6189 367.897 26.8489 373.357 26.8489C381.197 26.8489 386.867 28.2489 390.367 31.0489C393.867 33.7089 396.037 37.1389 396.877 41.3389C397.857 45.5389 398.347 49.8789 398.347 54.3589V132.479H393.307V56.2489C393.307 53.7289 393.237 50.9989 393.097 48.0589C392.957 45.1189 392.257 42.3889 390.997 39.8689C389.877 37.2089 387.917 35.0389 385.117 33.3589C382.317 31.6789 378.257 30.8389 372.937 30.8389C368.037 30.8389 364.047 31.6789 360.967 33.3589C357.887 34.8989 355.647 36.7189 354.247 38.8189C352.987 40.9189 352.357 42.7389 352.357 44.2789V132.479H347.317ZM446.972 132.479V8.36888H498.002V12.3589H452.222V65.0689H487.502V69.0589H452.222V132.479H446.972ZM518.346 133.949C512.186 133.949 507.216 133.039 503.436 131.219C499.656 129.399 496.926 126.459 495.246 122.399C493.566 118.199 492.726 112.809 492.726 106.229V54.3589C492.726 44.8389 494.546 37.9089 498.186 33.5689C501.966 29.0889 508.686 26.8489 518.346 26.8489C528.006 26.8489 534.586 29.0189 538.086 33.3589C541.726 37.5589 543.546 44.5589 543.546 54.3589V106.229C543.546 112.669 542.776 117.989 541.236 122.189C539.696 126.249 537.106 129.259 533.466 131.219C529.826 133.039 524.786 133.949 518.346 133.949ZM518.346 129.959C525.766 129.959 530.946 128.209 533.886 124.709C536.966 121.069 538.506 114.559 538.506 105.179V55.4089C538.506 46.7289 537.036 40.4989 534.096 36.7189C531.296 32.7989 526.046 30.8389 518.346 30.8389C510.926 30.8389 505.606 32.6589 502.386 36.2989C499.306 39.9389 497.766 46.3089 497.766 55.4089V105.179C497.766 114.419 499.306 120.859 502.386 124.499C505.606 128.139 510.926 129.959 518.346 129.959ZM579.213 133.949C573.053 133.949 568.083 133.039 564.303 131.219C560.523 129.399 557.793 126.459 556.113 122.399C554.433 118.199 553.593 112.809 553.593 106.229V54.3589C553.593 44.8389 555.413 37.9089 559.053 33.5689C562.833 29.0889 569.553 26.8489 579.213 26.8489C588.873 26.8489 595.453 29.0189 598.953 33.3589C602.593 37.5589 604.413 44.5589 604.413 54.3589V106.229C604.413 112.669 603.643 117.989 602.103 122.189C600.563 126.249 597.973 129.259 594.333 131.219C590.693 133.039 585.653 133.949 579.213 133.949ZM579.213 129.959C586.633 129.959 591.813 128.209 594.753 124.709C597.833 121.069 599.373 114.559 599.373 105.179V55.4089C599.373 46.7289 597.903 40.4989 594.963 36.7189C592.163 32.7989 586.913 30.8389 579.213 30.8389C571.793 30.8389 566.473 32.6589 563.253 36.2989C560.173 39.9389 558.633 46.3089 558.633 55.4089V105.179C558.633 114.419 560.173 120.859 563.253 124.499C566.473 128.139 571.793 129.959 579.213 129.959ZM639.03 134.159C633.29 134.159 628.74 133.389 625.38 131.849C622.16 130.309 619.71 128.209 618.03 125.549C616.49 122.889 615.51 119.879 615.09 116.519C614.67 113.159 614.46 109.729 614.46 106.229V53.7289C614.46 50.3689 614.67 47.0789 615.09 43.8589C615.51 40.6389 616.49 37.7689 618.03 35.2489C619.71 32.5889 622.23 30.4889 625.59 28.9489C628.95 27.2689 633.57 26.4289 639.45 26.4289C645.19 26.4289 649.74 27.2689 653.1 28.9489C656.46 30.4889 658.91 32.5189 660.45 35.0389V0.17887H665.28V132.479H661.71L661.08 122.609C660.24 124.709 658.98 126.669 657.3 128.489C655.62 130.169 653.31 131.499 650.37 132.479C647.57 133.599 643.79 134.159 639.03 134.159ZM639.24 130.379C644.7 130.379 648.9 129.399 651.84 127.439C654.78 125.479 656.81 122.959 657.93 119.879C659.05 116.659 659.68 113.229 659.82 109.589C660.1 105.809 660.24 102.239 660.24 98.8789V43.8589C659.82 42.0389 658.91 40.0789 657.51 37.9789C656.25 35.8789 654.22 34.0589 651.42 32.5189C648.62 30.9789 644.77 30.2089 639.87 30.2089C634.55 30.2089 630.49 30.9789 627.69 32.5189C624.89 33.9189 622.86 35.8789 621.6 38.3989C620.48 40.9189 619.85 43.7189 619.71 46.7989C619.57 49.7389 619.5 52.7489 619.5 55.8289V104.969C619.5 109.029 619.71 113.019 620.13 116.939C620.69 120.859 622.3 124.079 624.96 126.599C627.76 129.119 632.52 130.379 639.24 130.379ZM716.034 132.479V8.36888H748.584C753.624 8.36888 758.034 9.13888 761.814 10.6789C765.594 12.0789 768.534 14.7389 770.634 18.6589C772.874 22.5789 773.994 28.1789 773.994 35.4589V105.179C773.994 112.459 772.874 118.129 770.634 122.189C768.534 126.109 765.524 128.839 761.604 130.379C757.824 131.779 753.414 132.479 748.374 132.479H716.034ZM721.074 128.699H748.164C754.464 128.699 759.504 127.089 763.284 123.869C767.064 120.509 768.954 114.139 768.954 104.759V36.2989C768.954 26.9189 767.064 20.5489 763.284 17.1889C759.504 13.8289 754.464 12.1489 748.164 12.1489H721.074V128.699ZM790.983 132.479V28.5289H795.813V132.479H790.983ZM793.503 14.6689C792.243 14.6689 791.123 14.2489 790.143 13.4089C789.303 12.4289 788.883 11.3089 788.883 10.0489C788.883 8.78888 789.303 7.73888 790.143 6.89887C791.123 6.05887 792.243 5.63888 793.503 5.63888C794.763 5.63888 795.813 6.05887 796.653 6.89887C797.633 7.73888 798.123 8.78888 798.123 10.0489C798.123 11.3089 797.633 12.4289 796.653 13.4089C795.813 14.2489 794.763 14.6689 793.503 14.6689ZM833.69 133.739C827.11 133.739 821.93 132.969 818.15 131.429C814.37 129.749 811.71 127.019 810.17 123.239C808.77 119.319 808.07 114.069 808.07 107.489V97.6189H813.11V108.749C813.11 116.869 814.58 122.399 817.52 125.339C820.6 128.279 825.99 129.749 833.69 129.749C840.41 129.749 845.38 128.209 848.6 125.129C851.82 121.909 853.43 116.449 853.43 108.749V104.339C853.43 101.259 853.01 98.3889 852.17 95.7289C851.33 93.0689 849.51 90.5489 846.71 88.1689C844.05 85.7889 839.99 83.5489 834.53 81.4489C829.35 79.3489 824.87 77.1789 821.09 74.9389C817.45 72.6989 814.58 69.9689 812.48 66.7489C810.52 63.5289 809.54 59.3989 809.54 54.3589V47.8489C809.54 41.5489 811.43 36.5089 815.21 32.7289C819.13 28.8089 825.43 26.8489 834.11 26.8489C839.71 26.8489 844.26 27.6889 847.76 29.3689C851.4 30.9089 854.13 33.5689 855.95 37.3489C857.77 41.1289 858.68 46.1689 858.68 52.4689V62.1289H853.64V53.0989C853.64 44.4189 852.03 38.5389 848.81 35.4589C845.59 32.3789 840.69 30.8389 834.11 30.8389C826.41 30.8389 821.23 32.5889 818.57 36.0889C815.91 39.5889 814.58 43.9289 814.58 49.1089V53.3089C814.58 57.6489 815.35 61.2889 816.89 64.2289C818.57 67.0289 821.09 69.4789 824.45 71.5789C827.81 73.5389 832.15 75.6389 837.47 77.8789C841.81 79.6989 845.52 81.5889 848.6 83.5489C851.82 85.5089 854.27 88.1689 855.95 91.5289C857.77 94.7489 858.68 99.3689 858.68 105.389V108.959C858.68 114.139 857.91 118.619 856.37 122.399C854.83 126.039 852.24 128.839 848.6 130.799C844.96 132.759 839.99 133.739 833.69 133.739ZM887.672 132.479C884.732 132.479 882.212 132.059 880.112 131.219C878.152 130.379 876.542 129.189 875.282 127.649C874.022 125.969 873.112 124.009 872.552 121.769C871.992 119.389 871.712 116.659 871.712 113.579V32.5189H862.892V29.3689L871.712 28.5289L873.182 8.78887H876.542V28.5289H901.112V32.5189H876.542V112.739C876.542 117.359 877.382 121.139 879.062 124.079C880.742 126.879 884.172 128.279 889.352 128.279C891.452 128.279 893.552 128.209 895.652 128.069C897.892 127.929 899.712 127.789 901.112 127.649V131.639C899.572 131.779 897.612 131.989 895.232 132.269C892.852 132.409 890.332 132.479 887.672 132.479ZM906.114 132.479V28.5289H910.104L911.154 38.8189C912.974 34.3389 915.984 31.3289 920.184 29.7889C924.384 28.1089 928.514 27.1989 932.574 27.0589C936.074 27.0589 939.084 27.2689 941.604 27.6889V32.0989C940.764 31.8189 939.854 31.6789 938.874 31.6789C937.894 31.5389 936.844 31.4689 935.724 31.4689C934.744 31.3289 933.694 31.3289 932.574 31.4689C926.694 31.4689 921.654 32.8689 917.454 35.6689C913.254 38.4689 911.154 42.4589 911.154 47.6389V132.479H906.114ZM944.628 132.479V28.5289H949.458V132.479H944.628ZM947.148 14.6689C945.888 14.6689 944.768 14.2489 943.788 13.4089C942.948 12.4289 942.528 11.3089 942.528 10.0489C942.528 8.78888 942.948 7.73888 943.788 6.89887C944.768 6.05887 945.888 5.63888 947.148 5.63888C948.408 5.63888 949.458 6.05887 950.298 6.89887C951.278 7.73888 951.768 8.78888 951.768 10.0489C951.768 11.3089 951.278 12.4289 950.298 13.4089C949.458 14.2489 948.408 14.6689 947.148 14.6689ZM991.535 133.949C984.675 133.949 979.705 132.899 976.625 130.799C973.685 128.559 971.515 125.829 970.115 122.609L969.695 132.479H965.915V0.17887H970.745V37.3489C972.565 33.2889 975.225 30.5589 978.725 29.1589C982.365 27.6189 986.705 26.8489 991.745 26.8489C997.905 26.8489 1002.8 27.7589 1006.44 29.5789C1010.08 31.3989 1012.67 34.2689 1014.21 38.1889C1015.89 42.1089 1016.73 47.3589 1016.73 53.9389V106.229C1016.73 111.129 1016.31 115.329 1015.47 118.829C1014.63 122.329 1013.23 125.199 1011.27 127.439C1009.31 129.679 1006.72 131.359 1003.5 132.479C1000.28 133.459 996.295 133.949 991.535 133.949ZM991.325 129.959C996.505 129.959 1000.56 129.329 1003.5 128.069C1006.44 126.669 1008.54 124.289 1009.8 120.929C1011.06 117.429 1011.69 112.529 1011.69 106.229V53.5189C1011.69 44.5589 1010.22 38.5389 1007.28 35.4589C1004.34 32.3789 999.025 30.8389 991.325 30.8389C983.485 30.8389 978.095 32.7289 975.155 36.5089C972.355 40.1489 970.955 45.4689 970.955 52.4689V104.549C970.955 113.649 972.565 120.159 975.785 124.079C979.005 127.999 984.185 129.959 991.325 129.959ZM1052.95 134.159C1045.11 134.159 1039.44 132.829 1035.94 130.169C1032.44 127.369 1030.2 123.869 1029.22 119.669C1028.38 115.329 1027.96 110.989 1027.96 106.649V28.5289H1033V104.759C1033 108.679 1033.21 112.599 1033.63 116.519C1034.05 120.299 1035.66 123.449 1038.46 125.969C1041.4 128.489 1046.37 129.749 1053.37 129.749C1058.41 129.749 1062.33 128.909 1065.13 127.229C1067.93 125.409 1069.96 123.309 1071.22 120.929C1072.62 118.409 1073.53 116.169 1073.95 114.209V28.5289H1078.99V132.479H1074.58L1074.16 122.189C1073.04 125.129 1070.8 127.859 1067.44 130.379C1064.08 132.899 1059.25 134.159 1052.95 134.159ZM1111.82 132.479C1108.88 132.479 1106.36 132.059 1104.26 131.219C1102.3 130.379 1100.69 129.189 1099.43 127.649C1098.17 125.969 1097.26 124.009 1096.7 121.769C1096.14 119.389 1095.86 116.659 1095.86 113.579V32.5189H1087.04V29.3689L1095.86 28.5289L1097.33 8.78887H1100.69V28.5289H1125.26V32.5189H1100.69V112.739C1100.69 117.359 1101.53 121.139 1103.21 124.079C1104.89 126.879 1108.32 128.279 1113.5 128.279C1115.6 128.279 1117.7 128.209 1119.8 128.069C1122.04 127.929 1123.86 127.789 1125.26 127.649V131.639C1123.72 131.779 1121.76 131.989 1119.38 132.269C1117 132.409 1114.48 132.479 1111.82 132.479ZM1130.26 132.479V28.5289H1135.09V132.479H1130.26ZM1132.78 14.6689C1131.52 14.6689 1130.4 14.2489 1129.42 13.4089C1128.58 12.4289 1128.16 11.3089 1128.16 10.0489C1128.16 8.78888 1128.58 7.73888 1129.42 6.89887C1130.4 6.05887 1131.52 5.63888 1132.78 5.63888C1134.04 5.63888 1135.09 6.05887 1135.93 6.89887C1136.91 7.73888 1137.4 8.78888 1137.4 10.0489C1137.4 11.3089 1136.91 12.4289 1135.93 13.4089C1135.09 14.2489 1134.04 14.6689 1132.78 14.6689ZM1174.02 133.949C1167.86 133.949 1162.89 133.039 1159.11 131.219C1155.33 129.399 1152.6 126.459 1150.92 122.399C1149.24 118.199 1148.4 112.809 1148.4 106.229V54.3589C1148.4 44.8389 1150.22 37.9089 1153.86 33.5689C1157.64 29.0889 1164.36 26.8489 1174.02 26.8489C1183.68 26.8489 1190.26 29.0189 1193.76 33.3589C1197.4 37.5589 1199.22 44.5589 1199.22 54.3589V106.229C1199.22 112.669 1198.45 117.989 1196.91 122.189C1195.37 126.249 1192.78 129.259 1189.14 131.219C1185.5 133.039 1180.46 133.949 1174.02 133.949ZM1174.02 129.959C1181.44 129.959 1186.62 128.209 1189.56 124.709C1192.64 121.069 1194.18 114.559 1194.18 105.179V55.4089C1194.18 46.7289 1192.71 40.4989 1189.77 36.7189C1186.97 32.7989 1181.72 30.8389 1174.02 30.8389C1166.6 30.8389 1161.28 32.6589 1158.06 36.2989C1154.98 39.9389 1153.44 46.3089 1153.44 55.4089V105.179C1153.44 114.419 1154.98 120.859 1158.06 124.499C1161.28 128.139 1166.6 129.959 1174.02 129.959ZM1212.42 132.479V28.5289H1216.2L1217.46 38.8189C1218.58 34.7589 1221.24 31.7489 1225.44 29.7889C1229.78 27.6889 1234.12 26.6389 1238.46 26.6389C1246.3 26.6389 1251.97 28.0389 1255.47 30.8389C1258.97 33.6389 1261.14 37.1389 1261.98 41.3389C1262.96 45.5389 1263.45 49.8789 1263.45 54.3589V132.479H1258.41V56.2489C1258.41 53.1689 1258.34 50.1589 1258.2 47.2189C1258.06 44.1389 1257.36 41.4089 1256.1 39.0289C1254.98 36.5089 1253.02 34.5489 1250.22 33.1489C1247.42 31.6089 1243.36 30.8389 1238.04 30.8389C1233.14 30.8389 1229.22 31.7489 1226.28 33.5689C1223.48 35.3889 1221.45 37.5589 1220.19 40.0789C1218.93 42.4589 1218.02 44.6989 1217.46 46.7989V132.479H1212.42Z" fill="white"/>
</svg>
